<svg xmlns="http://www.w3.org/2000/svg" viewBox="0 0 1340 1058" width="1340" height="1058" role="img" aria-label="Sequence diagram">
  <rect width="100%" height="100%" fill="#f8fafc" rx="14" />

  <defs>
    <marker id="arrowhead" markerWidth="10" markerHeight="7" refX="9" refY="3.5" orient="auto" markerUnits="strokeWidth">
      <polygon points="0 0, 10 3.5, 0 7" fill="#0b1220" />
    </marker>
  </defs>

      <g>
        <rect x="40" y="56" width="160" height="34" rx="8" fill="#ecfeff" stroke="#0ea5e9" />
        <text x="120" y="78" text-anchor="middle" fill="#082f49" font-size="13" font-weight="600">OperatorBrowser</text>
        <line x1="130" y1="98" x2="130" y2="1034" stroke="#94a3b8" stroke-dasharray="6 5"/>
      </g>

      <g>
        <rect x="220" y="56" width="160" height="34" rx="8" fill="#ecfeff" stroke="#0ea5e9" />
        <text x="300" y="78" text-anchor="middle" fill="#082f49" font-size="13" font-weight="600">PhiloticWeb</text>
        <line x1="310" y1="98" x2="310" y2="1034" stroke="#94a3b8" stroke-dasharray="6 5"/>
      </g>

      <g>
        <rect x="400" y="56" width="160" height="34" rx="8" fill="#ecfeff" stroke="#0ea5e9" />
        <text x="480" y="78" text-anchor="middle" fill="#082f49" font-size="13" font-weight="600">SourceHotel</text>
        <line x1="490" y1="98" x2="490" y2="1034" stroke="#94a3b8" stroke-dasharray="6 5"/>
      </g>

      <g>
        <rect x="580" y="56" width="160" height="34" rx="8" fill="#ecfeff" stroke="#0ea5e9" />
        <text x="660" y="78" text-anchor="middle" fill="#082f49" font-size="13" font-weight="600">EgressRunner</text>
        <line x1="670" y1="98" x2="670" y2="1034" stroke="#94a3b8" stroke-dasharray="6 5"/>
      </g>

      <g>
        <rect x="760" y="56" width="160" height="34" rx="8" fill="#ecfeff" stroke="#0ea5e9" />
        <text x="840" y="78" text-anchor="middle" fill="#082f49" font-size="13" font-weight="600">ExitVault</text>
        <line x1="850" y1="98" x2="850" y2="1034" stroke="#94a3b8" stroke-dasharray="6 5"/>
      </g>

      <g>
        <rect x="940" y="56" width="160" height="34" rx="8" fill="#ecfeff" stroke="#0ea5e9" />
        <text x="1020" y="78" text-anchor="middle" fill="#082f49" font-size="13" font-weight="600">TokenEndpoint</text>
        <line x1="1030" y1="98" x2="1030" y2="1034" stroke="#94a3b8" stroke-dasharray="6 5"/>
      </g>

      <g>
        <rect x="1120" y="56" width="160" height="34" rx="8" fill="#ecfeff" stroke="#0ea5e9" />
        <text x="1200" y="78" text-anchor="middle" fill="#082f49" font-size="13" font-weight="600">UserInfoEndpoint</text>
        <line x1="1210" y1="98" x2="1210" y2="1034" stroke="#94a3b8" stroke-dasharray="6 5"/>
      </g>

      <g>
        <line x1="130" y1="116" x2="310" y2="116" stroke="#0b1220" stroke-width="1.8"  marker-end="url(#arrowhead)"/>
        <text x="220" y="108" text-anchor="middle" fill="#1e293b" font-size="12">OIDC callback with code and state</text>
      </g>

      <g>
        <line x1="310" y1="172" x2="310" y2="172" stroke="#0b1220" stroke-width="1.8"  marker-end="url(#arrowhead)"/>
        <text x="310" y="164" text-anchor="middle" fill="#1e293b" font-size="12">Validate state and recover PKCE verifier</text>
      </g>

      <g>
        <line x1="310" y1="228" x2="490" y2="228" stroke="#0b1220" stroke-width="1.8"  marker-end="url(#arrowhead)"/>
        <text x="400" y="220" text-anchor="middle" fill="#1e293b" font-size="12">Typed provider code verifier and exact redirect URI</text>
      </g>

      <g>
        <line x1="490" y1="284" x2="490" y2="284" stroke="#0b1220" stroke-width="1.8"  marker-end="url(#arrowhead)"/>
        <text x="490" y="276" text-anchor="middle" fill="#1e293b" font-size="12">Authorize exact web identity and compile local binding</text>
      </g>

      <g>
        <line x1="490" y1="340" x2="670" y2="340" stroke="#0b1220" stroke-width="1.8"  marker-end="url(#arrowhead)"/>
        <text x="580" y="332" text-anchor="middle" fill="#1e293b" font-size="12">Execute local-only OIDC exchange</text>
      </g>

      <g>
        <line x1="670" y1="396" x2="850" y2="396" stroke="#0b1220" stroke-width="1.8"  marker-end="url(#arrowhead)"/>
        <text x="760" y="388" text-anchor="middle" fill="#1e293b" font-size="12">Resolve client-secret reference</text>
      </g>

      <g>
        <line x1="850" y1="452" x2="670" y2="452" stroke="#0b1220" stroke-width="1.8" stroke-dasharray="6 4" marker-end="url(#arrowhead)"/>
        <text x="760" y="444" text-anchor="middle" fill="#1e293b" font-size="12">Client-secret value</text>
      </g>

      <g>
        <line x1="670" y1="508" x2="1030" y2="508" stroke="#0b1220" stroke-width="1.8"  marker-end="url(#arrowhead)"/>
        <text x="850" y="500" text-anchor="middle" fill="#1e293b" font-size="12">POST bounded token form</text>
      </g>

      <g>
        <line x1="1030" y1="564" x2="670" y2="564" stroke="#0b1220" stroke-width="1.8" stroke-dasharray="6 4" marker-end="url(#arrowhead)"/>
        <text x="850" y="556" text-anchor="middle" fill="#1e293b" font-size="12">Access and optional refresh tokens</text>
      </g>

      <g>
        <line x1="670" y1="620" x2="1210" y2="620" stroke="#0b1220" stroke-width="1.8"  marker-end="url(#arrowhead)"/>
        <text x="940" y="612" text-anchor="middle" fill="#1e293b" font-size="12">GET with runner-local bearer token</text>
      </g>

      <g>
        <line x1="1210" y1="676" x2="670" y2="676" stroke="#0b1220" stroke-width="1.8" stroke-dasharray="6 4" marker-end="url(#arrowhead)"/>
        <text x="940" y="668" text-anchor="middle" fill="#1e293b" font-size="12">Provider identity claims</text>
      </g>

      <g>
        <line x1="670" y1="732" x2="670" y2="732" stroke="#0b1220" stroke-width="1.8"  marker-end="url(#arrowhead)"/>
        <text x="670" y="724" text-anchor="middle" fill="#1e293b" font-size="12">Allowlist claims and discard token material</text>
      </g>

      <g>
        <line x1="670" y1="788" x2="490" y2="788" stroke="#0b1220" stroke-width="1.8"  marker-end="url(#arrowhead)"/>
        <text x="580" y="780" text-anchor="middle" fill="#1e293b" font-size="12">Claims plus two content-free audits</text>
      </g>

      <g>
        <line x1="490" y1="844" x2="310" y2="844" stroke="#0b1220" stroke-width="1.8" stroke-dasharray="6 4" marker-end="url(#arrowhead)"/>
        <text x="400" y="836" text-anchor="middle" fill="#1e293b" font-size="12">Provider ID and allowlisted claims only</text>
      </g>

      <g>
        <line x1="310" y1="900" x2="490" y2="900" stroke="#0b1220" stroke-width="1.8"  marker-end="url(#arrowhead)"/>
        <text x="400" y="892" text-anchor="middle" fill="#1e293b" font-size="12">Link identity and issue operator session</text>
      </g>

      <g>
        <line x1="310" y1="956" x2="130" y2="956" stroke="#0b1220" stroke-width="1.8" stroke-dasharray="6 4" marker-end="url(#arrowhead)"/>
        <text x="220" y="948" text-anchor="middle" fill="#1e293b" font-size="12">Same-origin operator session</text>
      </g>
</svg>
